HIERARCHY
ROOT root
{
	OFFSET 0.000000 0.000000 0.000000
	CHANNELS 6 Xposition Yposition Zposition Zrotation Yrotation Xrotation
	JOINT lhip
	{
		OFFSET 0.058581 -0.082280 -0.017664
		CHANNELS 3 Zrotation Yrotation Xrotation
		JOINT lknee
		{
			OFFSET 0.043451 -0.386469 0.008037
			CHANNELS 3 Zrotation Yrotation Xrotation
			JOINT lankle
			{
				OFFSET -0.014790 -0.426874 -0.037428
				CHANNELS 3 Zrotation Yrotation Xrotation
				JOINT ltoe
				{
					OFFSET 0.041054 -0.060286 0.122042
					CHANNELS 3 Zrotation Yrotation Xrotation
					End Site
					{
						OFFSET 0.000000 0.000000 0.000000
					}
				}
			}
		}
	}
	JOINT rhip
	{
		OFFSET -0.060310 -0.090513 -0.013543
		CHANNELS 3 Zrotation Yrotation Xrotation
		JOINT rknee
		{
			OFFSET -0.043257 -0.383688 -0.004843
			CHANNELS 3 Zrotation Yrotation Xrotation
			JOINT rankle
			{
				OFFSET 0.019056 -0.420046 -0.034562
				CHANNELS 3 Zrotation Yrotation Xrotation
				JOINT rtoe
				{
					OFFSET -0.034840 -0.062106 0.130323
					CHANNELS 3 Zrotation Yrotation Xrotation
					End Site
					{
						OFFSET 0.000000 0.000000 0.000000
					}
				}
			}
		}
	}
	JOINT lowerback
	{
		OFFSET 0.004439 0.124404 -0.038385
		CHANNELS 3 Zrotation Yrotation Xrotation
		JOINT upperback
		{
			OFFSET 0.004488 0.137956 0.026820
			CHANNELS 3 Zrotation Yrotation Xrotation
			JOINT chest
			{
				OFFSET -0.002265 0.056032 0.002855
				CHANNELS 3 Zrotation Yrotation Xrotation
				JOINT lowerneck
				{
					OFFSET -0.013390 0.211636 -0.033468
					CHANNELS 3 Zrotation Yrotation Xrotation
					JOINT upperneck
					{
						OFFSET 0.010113 0.088937 0.050410
						CHANNELS 3 Zrotation Yrotation Xrotation
						End Site
						{
							OFFSET 0.000000 0.000000 0.000000
						}
					}
				}
				JOINT lclavicle
				{
					OFFSET 0.071702 0.114000 -0.018898
					CHANNELS 3 Zrotation Yrotation Xrotation
					JOINT lshoulder
					{
						OFFSET 0.122921 0.045205 -0.019046
						CHANNELS 3 Zrotation Yrotation Xrotation
						JOINT lelbow
						{
							OFFSET 0.255332 -0.015649 -0.022946
							CHANNELS 3 Zrotation Yrotation Xrotation
							JOINT lwrist
							{
								OFFSET 0.265709 0.012698 -0.007375
								CHANNELS 3 Zrotation Yrotation Xrotation
								End Site
								{
									OFFSET 0.000000 0.000000 0.000000
								}
							}
						}
					}
				}
				JOINT rclavicle
				{
					OFFSET -0.082954 0.112472 -0.023707
					CHANNELS 3 Zrotation Yrotation Xrotation
					JOINT rshoulder
					{
						OFFSET -0.113228 0.046853 -0.008472
						CHANNELS 3 Zrotation Yrotation Xrotation
						JOINT relbow
						{
							OFFSET -0.260127 -0.014369 -0.031269
							CHANNELS 3 Zrotation Yrotation Xrotation
							JOINT rwrist
							{
								OFFSET -0.269108 0.006794 -0.006027
								CHANNELS 3 Zrotation Yrotation Xrotation
								End Site
								{
									OFFSET 0.000000 0.000000 0.000000
								}
							}
						}
					}
				}
			}
		}
	}
}
MOTION
Frames: 10
Frame Time: 0.033333
-1.414921 1.397559 0.912807 58.639818 -1.387324 96.872334 13.735231 8.577051 -31.251525 -18.921456 -18.147676 41.076914 1.249155 7.468825 -21.301827 0.000000 -0.000000 0.000000 -14.613628 -8.830801 -32.329468 11.261577 11.545069 45.394190 1.239934 -10.065649 -25.279689 0.000000 -0.000000 0.000000 0.707075 0.899917 34.223437 -1.277695 -2.310426 0.528512 -0.384540 1.200704 -3.535563 -3.128610 -1.468734 -18.193275 3.295462 0.841295 1.478107 -21.944745 -6.360037 -1.974125 4.006640 -5.496634 -13.070594 5.102927 -12.856494 -53.287102 43.287358 -1.843445 -28.074804 20.700954 9.659601 0.538003 3.524165 3.550420 -16.648257 -9.995630 8.090944 -39.847489 -41.490225 2.819777 -17.189982 
-1.416866 1.398587 0.912432 58.727830 -1.558341 96.020658 13.601542 8.596256 -30.504300 -18.961395 -18.240166 41.072024 0.638742 7.682792 -21.429540 0.000000 -0.000000 0.000000 -14.782101 -9.054637 -31.793779 11.164724 11.491206 45.756172 1.039455 -9.631786 -25.355337 0.000000 -0.000000 0.000000 0.910377 0.787775 34.196836 -1.523851 -2.587750 2.320104 -0.675870 1.361612 -3.548169 -3.294725 -1.944101 -15.673855 4.447473 0.018272 -0.119540 -23.124023 -9.052226 -1.076169 5.168638 -6.024624 -14.005268 4.042180 -12.919546 -52.399524 44.076484 -2.971279 -27.850024 21.030596 12.449690 1.808723 3.774901 4.237464 -17.234559 -9.546978 8.889951 -38.371769 -43.060207 3.455751 -16.595300 
-1.418887 1.398609 0.911899 58.853623 -1.745372 95.446426 13.447881 8.588373 -29.954065 -18.912146 -18.323112 40.754716 0.831481 7.675276 -21.552134 0.000000 -0.000000 0.000000 -14.939847 -9.182360 -31.449214 11.086935 11.397333 45.975318 0.804599 -9.439902 -25.662978 0.000000 -0.000000 0.000000 1.086611 0.618163 33.830691 -1.764182 -3.052327 3.683242 -0.909680 1.276739 -3.228044 -3.521424 -2.157405 -13.806380 5.399957 0.143141 -0.972754 -24.172282 -11.572771 0.345470 5.900285 -6.098882 -14.763689 3.821495 -12.903363 -52.543265 45.207205 -3.103409 -26.363752 21.162951 14.997015 3.665018 4.032698 6.135280 -17.571201 -9.260483 8.285718 -36.631690 -43.664065 4.061851 -15.342721 
-1.421767 1.399158 0.912587 58.933656 -2.015292 94.550098 13.076382 8.586004 -29.261534 -18.693954 -18.524302 40.656943 0.806587 7.527098 -21.789042 0.000000 -0.000000 0.000000 -15.128788 -9.137896 -30.798307 10.877986 11.380040 46.077327 0.773799 -9.257432 -25.913895 0.000000 -0.000000 0.000000 1.347422 0.392709 33.801403 -2.173276 -3.387461 5.090257 -1.246141 1.159958 -2.900402 -3.888897 -2.532407 -11.435400 6.350124 0.227094 -2.066760 -25.394567 -14.575303 1.337180 6.272759 -6.737044 -14.687111 3.825559 -13.547512 -52.408788 46.678191 -3.431404 -25.976864 21.792392 17.997369 4.859138 4.188052 8.066359 -16.947984 -8.944382 8.664138 -35.069395 -44.453855 4.239384 -15.840197 
-1.423229 1.399583 0.912858 58.950565 -2.132577 94.266949 12.993894 8.590611 -29.007201 -18.489456 -18.420143 40.381388 0.708137 7.156411 -22.065900 0.000000 -0.000000 0.000000 -15.250716 -9.086517 -30.598846 10.701045 11.230915 46.006766 0.711974 -8.990517 -26.063417 0.000000 -0.000000 0.000000 1.575508 0.167498 33.554905 -2.424451 -3.624993 5.797821 -1.513037 1.115991 -2.968547 -4.246837 -2.651467 -9.717538 6.928584 0.350984 -2.455606 -26.213403 -16.049496 2.277619 6.231365 -7.028571 -14.396773 4.031705 -14.148355 -52.169294 47.050557 -3.623503 -25.421480 22.258282 19.700369 6.043828 4.346779 9.243844 -16.981268 -8.863606 8.661794 -34.677001 -44.874240 4.515879 -15.488258 
-1.425955 1.399771 0.912825 58.824831 -2.299262 94.065620 12.962996 8.720452 -28.754916 -18.440556 -18.381123 39.943622 0.667136 6.918707 -22.052292 0.000000 -0.000000 0.000000 -15.339546 -8.939475 -30.687915 10.529450 11.042331 46.057425 0.641674 -8.702376 -26.126441 0.000000 -0.000000 0.000000 1.650533 -0.032189 33.026468 -2.732251 -3.747709 6.476736 -1.830106 1.151708 -2.813921 -4.737961 -3.032679 -7.563752 7.651936 0.523868 -2.425298 -27.037714 -17.808840 3.271388 6.141427 -7.750781 -14.100765 3.602924 -14.755280 -50.919584 47.712427 -4.107337 -25.824590 22.791857 21.561373 7.437058 4.674673 10.996966 -17.508494 -8.486168 8.757026 -33.732918 -45.308138 5.097198 -15.448932 
-1.428619 1.399908 0.912936 58.688621 -2.391104 93.779323 13.021102 8.878802 -28.346534 -18.010519 -18.035958 39.393723 0.595524 6.332259 -22.076503 0.000000 -0.000000 0.000000 -15.329088 -8.989196 -30.672908 10.332833 10.946607 46.090191 0.669457 -8.084096 -26.086564 0.000000 -0.000000 0.000000 1.767766 -0.154096 32.381734 -3.038277 -3.922626 7.264390 -2.123741 1.284298 -2.831974 -5.198038 -3.162233 -5.042159 8.514202 0.366146 -2.417129 -27.781709 -19.314474 3.764727 5.935122 -8.854593 -13.704046 3.303471 -14.928216 -50.107381 46.468492 -4.933213 -24.787727 23.664402 23.204311 8.809307 4.788079 12.517432 -17.722839 -8.315795 8.785176 -33.328101 -43.896609 5.820540 -14.602476 
-1.431645 1.400000 0.912834 58.546603 -2.342756 93.364536 13.316476 8.985643 -27.769119 -17.811764 -17.984666 38.856848 0.410478 5.938675 -22.112677 0.000000 -0.000000 0.000000 -15.261549 -8.652043 -30.470691 10.183532 10.675279 46.053287 0.589027 -7.686229 -26.245435 0.000000 -0.000000 0.000000 1.743578 -0.257353 31.786467 -3.088807 -3.974738 8.362301 -2.346377 1.473608 -3.234028 -5.385177 -3.298456 -2.793695 8.828240 -0.123379 -1.769278 -28.143430 -20.460890 4.320345 5.123665 -9.927296 -13.179700 3.191992 -15.627027 -49.427144 44.950233 -5.647896 -24.958672 24.662693 24.568878 9.926545 4.820212 13.652550 -17.075089 -8.105879 9.246320 -32.370729 -42.070712 6.336214 -14.601047 
-1.434165 1.400598 0.912794 58.626984 -2.442545 92.816432 13.260847 9.026264 -27.163720 -17.529253 -18.094586 38.542359 0.365981 5.616779 -22.161016 0.000000 -0.000000 0.000000 -15.426547 -8.883114 -30.038732 10.198381 10.545408 46.030929 0.586147 -7.117558 -26.302374 0.000000 -0.000000 0.000000 1.747064 -0.159495 31.234787 -2.991268 -4.127181 9.353522 -2.392566 1.572733 -3.461192 -6.116521 -3.947846 -0.703262 9.088298 -0.137029 -1.100060 -28.804793 -21.361339 4.901983 4.851861 -10.912512 -12.536918 2.394697 -16.375760 -47.510775 42.701857 -6.496575 -24.975765 25.734857 25.382236 11.078762 4.068827 14.444808 -17.381100 -7.760109 9.580341 -31.394890 -39.449879 7.533820 -14.214614 
-1.437426 1.400985 0.913218 58.828283 -2.496325 92.224010 13.342069 8.740393 -26.575934 -17.478994 -18.277858 38.271805 0.385260 5.760610 -22.067155 0.000000 -0.000000 0.000000 -15.548569 -8.966104 -29.522469 10.329308 10.471985 46.001752 0.631985 -6.827313 -26.248251 0.000000 -0.000000 0.000000 1.700099 0.104439 30.675166 -2.691304 -4.243806 9.486817 -2.196503 1.767449 -2.818252 -6.892263 -4.368046 1.356487 9.021330 -0.199287 0.132596 -28.932042 -22.318145 5.482690 4.372743 -11.745249 -12.067035 0.682318 -17.765049 -44.665647 40.300687 -7.354610 -24.263952 26.535740 25.688085 11.747411 2.947062 14.679738 -18.531353 -6.450906 11.447577 -29.554154 -37.053297 7.261448 -7.849450 
